<svg xmlns="http://www.w3.org/2000/svg" xmlns:svg="http://www.w3.org/2000/svg" xmlns:xlink="http://www.w3.org/1999/xlink" id="svg2" width="16" height="16" version="1.1"><defs id="defs4"><linearGradient id="linearGradient4446"><stop style="stop-color:#d1d6dd;stop-opacity:1" id="stop4448" offset="0"/><stop style="stop-color:#bfc9d6;stop-opacity:1" id="stop4450" offset="1"/></linearGradient><linearGradient id="linearGradient4289"><stop style="stop-color:#bfc9d6;stop-opacity:1" id="stop4291" offset="0"/><stop style="stop-color:#cbd2db;stop-opacity:1" id="stop4293" offset="1"/></linearGradient><linearGradient id="linearGradient4209"><stop style="stop-color:#eef6ff;stop-opacity:1" id="stop4211" offset="0"/><stop style="stop-color:#fdfeff;stop-opacity:1" id="stop4213" offset="1"/></linearGradient><linearGradient id="linearGradient4201"><stop style="stop-color:#717883;stop-opacity:1" id="stop4203" offset="0"/><stop style="stop-color:#81733e;stop-opacity:1" id="stop4205" offset="1"/></linearGradient><linearGradient id="linearGradient4179"><stop style="stop-color:#d6e0e6;stop-opacity:1" id="stop4181" offset="0"/><stop style="stop-color:#d6e0e6;stop-opacity:0" id="stop4183" offset="1"/></linearGradient><linearGradient id="linearGradient4207" x1="21.948" x2="21.948" y1="1035.72" y2="1028.428" gradientTransform="translate(-14.203124,22.029685)" gradientUnits="userSpaceOnUse" xlink:href="#linearGradient4201"/><linearGradient id="linearGradient4215" x1="20.932" x2="20.932" y1="1036.206" y2="1030.549" gradientTransform="translate(-14.203124,22.029685)" gradientUnits="userSpaceOnUse" xlink:href="#linearGradient4209"/><linearGradient id="linearGradient4295" x1="23.191" x2="26.213" y1="1022.839" y2="1022.839" gradientUnits="userSpaceOnUse" xlink:href="#linearGradient4289"/><linearGradient id="linearGradient4295-6" x1="23.191" x2="26.213" y1="1022.839" y2="1022.839" gradientTransform="translate(-5.4632568e-7,-2.0000302)" gradientUnits="userSpaceOnUse" xlink:href="#linearGradient4289"/><linearGradient id="linearGradient4295-6-2" x1="23.191" x2="26.213" y1="1022.839" y2="1022.839" gradientTransform="translate(-5.4632568e-7,-3.9844052)" gradientUnits="userSpaceOnUse" xlink:href="#linearGradient4289"/><linearGradient id="linearGradient4374" x1="15.156" x2="28.135" y1="1043.8" y2="1043.8" gradientUnits="userSpaceOnUse" xlink:href="#linearGradient4179"/><linearGradient id="linearGradient4452" x1="17.206" x2="21.227" y1="1020.343" y2="1020.343" gradientTransform="translate(-14.203124,34.030335)" gradientUnits="userSpaceOnUse" xlink:href="#linearGradient4446"/><linearGradient id="linearGradient4452-6" x1="17.206" x2="21.227" y1="1020.343" y2="1020.343" gradientTransform="translate(-14.203124,36.037394)" gradientUnits="userSpaceOnUse" xlink:href="#linearGradient4446"/></defs><metadata id="metadata7"/><g id="layer1" transform="translate(0,-1036.3622)" style="display:inline"><g id="g4580" transform="translate(0,-11.992529)"><g id="g4571"><rect id="rect4217" width="6.249" height="8.593" x="8.264" y="1051.324" style="opacity:1;fill:#3d4b65;fill-opacity:1;stroke:#3d4b65;stroke-width:1;stroke-linejoin:miter;stroke-miterlimit:4;stroke-dasharray:none;stroke-opacity:1"/><path style="display:inline;fill:#3d4b65;fill-opacity:1;fill-rule:evenodd;stroke:#3d4b65;stroke-width:1px;stroke-linecap:butt;stroke-linejoin:miter;stroke-opacity:1" id="path4192-8" d="m 7.535109,1056.0246 -2.209709,0 c -0.369764,0 -0.359452,-1.0385 -0.795495,-1.0385 l -3.071495,0 0,4.9497 2.452777,0 c 0.637939,0 0.201444,1.0469 0.60439,1.0469 l 3.019532,0 z m -0.0221,0.044 c 0,-0.4897 1.06066,-1.0164 1.06066,-1.0164 l -0.132583,4.9939 -0.883883,0.8839 c 0,0 -0.04419,-2.1102 -0.04419,-4.8614 z"/><path style="fill:url(#linearGradient4215);fill-opacity:1;fill-rule:evenodd;stroke:url(#linearGradient4207);stroke-width:1px;stroke-linecap:butt;stroke-linejoin:miter;stroke-opacity:1" id="path4192" d="m 7.57662,1051.91 -2.209709,0 c -0.369764,0 -0.359452,-1.0385 -0.795495,-1.0385 l -3.071495,0 0,8.0433 2.452777,0 c 0.637939,0 0.201444,1.0469 0.60439,1.0469 l 3.019532,0 z m -0.0221,0.044 c 0,-0.4897 0.570981,-1.0164 1.06066,-1.0164 l 4.905553,0 0,8.0875 c 0,0 -3.574259,0 -5.038136,0 -0.350397,0 -0.883883,0.8839 -0.883883,0.8839 0,0 -0.04419,-5.2038 -0.04419,-7.955 z"/><g style="stroke:url(#linearGradient4374)" id="g4369" transform="translate(-14.171874,34.029685)"><rect style="opacity:1;fill:url(#linearGradient4295);fill-opacity:1;stroke:none;stroke-width:1;stroke-linejoin:miter;stroke-miterlimit:4;stroke-dasharray:none;stroke-opacity:1" id="rect4287" width="3.022" height="1.011" x="23.191" y="1022.333"/><rect style="display:inline;opacity:1;fill:url(#linearGradient4295-6);fill-opacity:1;stroke:none;stroke-width:1;stroke-linejoin:miter;stroke-miterlimit:4;stroke-dasharray:none;stroke-opacity:1" id="rect4287-1" width="3.022" height="1.011" x="23.191" y="1020.333"/><rect style="display:inline;opacity:1;fill:url(#linearGradient4295-6-2);fill-opacity:1;stroke:none;stroke-width:1;stroke-linejoin:miter;stroke-miterlimit:4;stroke-dasharray:none;stroke-opacity:1" id="rect4287-1-6" width="3.022" height="1.011" x="23.191" y="1018.349"/></g></g><path id="path4192-1" d="m 7.024208,1054.8923 -1.325826,0 c -0.369764,0 -0.359452,-1.0385 -0.795495,-1.0385 l -1.900349,0" style="display:inline;fill:none;fill-opacity:1;fill-rule:evenodd;stroke:url(#linearGradient4452);stroke-width:1px;stroke-linecap:butt;stroke-linejoin:miter;stroke-opacity:1"/><path id="path4192-1-0" d="m 7.024208,1056.8993 -1.325826,0 c -0.369764,0 -0.359452,-1.0385 -0.795495,-1.0385 l -1.900349,0" style="display:inline;fill:none;fill-opacity:1;fill-rule:evenodd;stroke:url(#linearGradient4452-6);stroke-width:1px;stroke-linecap:butt;stroke-linejoin:miter;stroke-opacity:1"/></g></g></svg>