<svg xmlns="http://www.w3.org/2000/svg" xmlns:svg="http://www.w3.org/2000/svg" xmlns:xlink="http://www.w3.org/1999/xlink" id="svg2" width="16" height="16" version="1.1"><defs id="defs4"><linearGradient id="linearGradient5000"><stop style="stop-color:#fffbce;stop-opacity:1" id="stop5002" offset="0"/><stop style="stop-color:#ffcf73;stop-opacity:1" id="stop5004" offset="1"/></linearGradient><linearGradient id="linearGradient4990"><stop style="stop-color:#000;stop-opacity:1" id="stop4992" offset="0"/><stop style="stop-color:#000;stop-opacity:0" id="stop4994" offset="1"/></linearGradient><linearGradient id="linearGradient4962"><stop style="stop-color:#000;stop-opacity:1" id="stop4964" offset="0"/><stop style="stop-color:#000;stop-opacity:0" id="stop4966" offset="1"/></linearGradient><linearGradient id="linearGradient4901"><stop style="stop-color:#5b7aac;stop-opacity:1" id="stop4903" offset="0"/><stop style="stop-color:#13347c;stop-opacity:1" id="stop4905" offset="1"/></linearGradient><linearGradient id="linearGradient4893"><stop style="stop-color:#dff2fe;stop-opacity:1" id="stop4895" offset="0"/><stop style="stop-color:#fff;stop-opacity:1" id="stop4897" offset="1"/></linearGradient><linearGradient id="linearGradient4832"><stop style="stop-color:#edeb02;stop-opacity:1" id="stop4834" offset="0"/><stop style="stop-color:#6cc13a;stop-opacity:1" id="stop4836" offset="1"/></linearGradient><linearGradient id="linearGradient4818"><stop id="stop4820" offset="0" style="stop-color:#296166;stop-opacity:1"/><stop id="stop4822" offset="1" style="stop-color:#274184;stop-opacity:1"/></linearGradient><linearGradient id="linearGradient4776"><stop style="stop-color:#39845b;stop-opacity:1" id="stop4778" offset="0"/><stop style="stop-color:#367a5d;stop-opacity:1" id="stop4780" offset="1"/></linearGradient><linearGradient id="linearGradient4764"><stop style="stop-color:#6f736b;stop-opacity:1" id="stop4766" offset="0"/><stop style="stop-color:#a6967b;stop-opacity:1" id="stop4768" offset="1"/></linearGradient><linearGradient id="linearGradient4770" x1="8.409" x2="8.409" y1="8.789" y2="1.125" gradientUnits="userSpaceOnUse" xlink:href="#linearGradient4764"/><linearGradient id="linearGradient4782" x1="10.583" x2="10.583" y1="1043.602" y2="1046" gradientTransform="translate(-2,0)" gradientUnits="userSpaceOnUse" xlink:href="#linearGradient4776"/><linearGradient id="linearGradient4799" x1="10.583" x2="10.583" y1="1043.602" y2="1047.691" gradientTransform="translate(-2,3.9999517)" gradientUnits="userSpaceOnUse" xlink:href="#linearGradient4818"/><linearGradient id="linearGradient4838" x1="11.953" x2="11.953" y1="1048.067" y2="1051.556" gradientTransform="translate(-4,0)" gradientUnits="userSpaceOnUse" xlink:href="#linearGradient4832"/><linearGradient id="linearGradient4899" x1="10.672" x2="10.672" y1="1051.712" y2="1039.911" gradientTransform="translate(-2,0)" gradientUnits="userSpaceOnUse" xlink:href="#linearGradient4893"/><linearGradient id="linearGradient4907" x1="27.048" x2="27.048" y1="1051.956" y2="1043.369" gradientTransform="translate(-22,0)" gradientUnits="userSpaceOnUse" xlink:href="#linearGradient4901"/><linearGradient id="linearGradient4968" x1="5.817" x2="4.771" y1="1041.091" y2="1040.086" gradientUnits="userSpaceOnUse" xlink:href="#linearGradient4962"/><linearGradient id="linearGradient4996" x1="10" x2="9" y1="1041.362" y2="1042.362" gradientUnits="userSpaceOnUse" xlink:href="#linearGradient4990"/><linearGradient id="linearGradient4998" x1="7" x2="8" y1="1041.362" y2="1042.362" gradientUnits="userSpaceOnUse" xlink:href="#linearGradient4990"/><linearGradient id="linearGradient5006" x1="11" x2="11" y1="1" y2="9" gradientUnits="userSpaceOnUse" xlink:href="#linearGradient5000"/></defs><metadata id="metadata7"/><g id="layer1" transform="translate(0,-1036.3622)" style="display:inline"><path style="fill:url(#linearGradient4899);fill-opacity:1;stroke:url(#linearGradient4907);stroke-width:1;stroke-linecap:round;stroke-linejoin:round;stroke-miterlimit:4;stroke-opacity:1;stroke-dashoffset:0;display:inline" id="rect4774-4-4" d="m 3.639246,1044.01 4.871803,-4.9944 4.871802,4.9944 c 0.04798,0.049 0.124028,0.055 0.124028,0.124 l 0,7.6443 c 0,0.069 -0.05532,0.1241 -0.124028,0.1241 l -9.743605,0 c -0.06871,0 -0.124028,-0.055 -0.124028,-0.1241 l 0,-7.6443 c 0,-0.069 0.05532,-0.124 0.124028,-0.124 z"/><rect style="fill:#9f453a;fill-opacity:1;stroke:#aeaa73;stroke-width:.64999998000000003;stroke-linecap:round;stroke-linejoin:round;stroke-miterlimit:4;stroke-opacity:1;stroke-dasharray:none;stroke-dashoffset:0" id="rect4762" width="1.352" height="4.555" x="4.32" y="1.336" rx=".16" ry=".16" transform="translate(0,1036.3622)"/><rect style="fill:url(#linearGradient4968);fill-opacity:1;stroke:none;display:inline;opacity:.5" id="rect4762-8" width="2.003" height="3.494" x="3.994" y="1038.759" rx=".237" ry=".123"/><rect style="fill:#edeb02;fill-opacity:1;stroke:url(#linearGradient4782);stroke-width:.66977459;stroke-linecap:round;stroke-linejoin:round;stroke-miterlimit:4;stroke-opacity:1;stroke-dasharray:none;stroke-dashoffset:0" id="rect4774" width="2.324" height="2.324" x="7.338" y="1043.7" rx=".124" ry=".124"/><rect style="fill:url(#linearGradient4838);fill-opacity:1;stroke:url(#linearGradient4799);stroke-width:.66977459;stroke-linecap:round;stroke-linejoin:round;stroke-miterlimit:4;stroke-opacity:1;stroke-dasharray:none;stroke-dashoffset:0;display:inline" id="rect4774-4" width="2.324" height="4.18" x="7.338" y="1047.7" rx=".124" ry=".124"/><path style="fill:url(#linearGradient4998);fill-opacity:1;stroke:none;display:inline;opacity:.5" id="rect4774-4-4-5" d="m 3.1531968,1043.8654 5.3578522,-5.4927 -5e-7,8.1726 -5.3578517,0 -0.136402,-0.1366 0,-2.4069 z"/><path style="fill:url(#linearGradient4996);fill-opacity:1;stroke:none;display:inline;opacity:.5" id="rect4774-4-4-5-8" d="m 8.511049,1038.3727 5.357851,5.4927 0.136402,0.1364 0,2.4069 -0.136402,0.1366 -5.3578515,0 z"/><path style="fill:url(#linearGradient5006);fill-opacity:1;stroke:url(#linearGradient4770);stroke-width:.64999998000000003;stroke-linecap:round;stroke-linejoin:round;stroke-miterlimit:4;stroke-opacity:1;stroke-dasharray:none;stroke-dashoffset:0" id="rect3973" d="M 8.46875 1.6875 C 8.4278236 1.6875 8.4063599 1.6873901 8.375 1.71875 L 7.6875 2.40625 L 2.15625 7.9375 C 2.0935302 8.0002198 2.0935302 8.0935302 2.15625 8.15625 L 2.84375 8.84375 C 2.9064698 8.9064698 2.9997802 8.9064698 3.0625 8.84375 L 8.5 3.4375 L 13.90625 8.84375 C 13.96897 8.9064698 14.06228 8.9064698 14.125 8.84375 L 14.8125 8.15625 C 14.87522 8.0935302 14.87522 8.0002198 14.8125 7.9375 L 9.28125 2.40625 L 8.59375 1.71875 C 8.5623901 1.6873901 8.5096764 1.6875 8.46875 1.6875 z" transform="translate(0,1036.3622)"/></g></svg>