<svg xmlns="http://www.w3.org/2000/svg" xmlns:xlink="http://www.w3.org/1999/xlink" width="16" height="16" version="1.1" viewBox="0 0 16 16"><defs><linearGradient id="b"><stop offset="0" stop-color="#679989"/><stop offset="1" stop-color="#7eb89d"/></linearGradient><linearGradient id="a" x1="4.938" x2="4.938" y1="1021.4" y2="1016.5" gradientUnits="userSpaceOnUse" xlink:href="#b"/></defs><metadata/><g><g><g fill="url(#a)" transform="translate(0 -1036.4) translate(11.429 -2.1875e-7) translate(17 -10)"><g aria-label="&gt;"><path fill="url(#a)" d="m0.049481 1031.5v-3.6849l7.008-2.7123s0.68772-0.2884 0.6877-0.8489-0.6877-0.8488-0.6877-0.8488l-7.008-2.7384v-3.6589l13.099 5.6641s1.1462 0.4794 1.1462 1.5625-1.1462 1.5625-1.1462 1.5625z" transform="matrix(.30537 0 0 .48302 -22.444 560.15)"/></g><g aria-label="&gt;"><path fill="url(#a)" d="m0.049481 1031.5v-3.6849l7.008-2.7123s0.68772-0.2884 0.6877-0.8489-0.6877-0.8488-0.6877-0.8488l-7.008-2.7384v-3.6589l13.099 5.6641s1.1462 0.4794 1.1462 1.5625-1.1462 1.5625-1.1462 1.5625z" transform="matrix(.30537 0 0 .48302 -17.444 560.15)"/></g><g aria-label="&gt;"><path fill="url(#a)" d="m0.049481 1031.5v-3.6849l7.008-2.7123s0.68772-0.2884 0.6877-0.8489-0.6877-0.8488-0.6877-0.8488l-7.008-2.7384v-3.6589l13.099 5.6641s1.1462 0.4794 1.1462 1.5625-1.1462 1.5625-1.1462 1.5625z" transform="matrix(.30537 0 0 .48302 -27.444 560.15)"/></g></g></g></g></svg>