<svg xmlns="http://www.w3.org/2000/svg" xmlns:svg="http://www.w3.org/2000/svg" xmlns:xlink="http://www.w3.org/1999/xlink" id="svg2" width="16" height="16" version="1.1"><defs id="defs4"><linearGradient id="linearGradient4994"><stop id="stop4996" offset="0" style="stop-color:#bbbab6;stop-opacity:1"/><stop style="stop-color:#d8d8d6;stop-opacity:1" id="stop5002" offset=".131"/><stop style="stop-color:#bbbab6;stop-opacity:1" id="stop4998" offset=".263"/><stop id="stop5004" offset=".631" style="stop-color:#b8b6b2;stop-opacity:1"/><stop id="stop5000" offset="1" style="stop-color:#a8a6a1;stop-opacity:1"/></linearGradient><linearGradient id="linearGradient4976"><stop style="stop-color:#cececb;stop-opacity:1" id="stop4978" offset="0"/><stop id="stop4984" offset=".263" style="stop-color:#c5c3b5;stop-opacity:1"/><stop style="stop-color:#bebdb9;stop-opacity:1" id="stop4980" offset="1"/></linearGradient><linearGradient id="linearGradient4952"><stop style="stop-color:#e0dcd1;stop-opacity:1" id="stop4954" offset="0"/><stop id="stop4970" offset=".25" style="stop-color:#e7e6db;stop-opacity:1"/><stop id="stop4968" offset=".628" style="stop-color:#d2cfbb;stop-opacity:1"/><stop style="stop-color:#c3bfab;stop-opacity:1" id="stop4956" offset="1"/></linearGradient><linearGradient id="linearGradient4958" x1="26.461" x2="29.826" y1="1045.005" y2="1048.598" gradientTransform="translate(-2.1397741,4.8953347e-7)" gradientUnits="userSpaceOnUse" xlink:href="#linearGradient4952"/><linearGradient id="linearGradient4982" x1="26.545" x2="30.346" y1="1057.673" y2="1061.172" gradientTransform="translate(0,-14.978419)" gradientUnits="userSpaceOnUse" xlink:href="#linearGradient4976"/><linearGradient id="linearGradient4992" x1="29.595" x2="35.038" y1="1053.513" y2="1058.714" gradientTransform="translate(0,-14.978419)" gradientUnits="userSpaceOnUse" xlink:href="#linearGradient4994"/></defs><metadata id="metadata7"/><g id="layer1" transform="translate(0,-1036.3622)" style="display:inline"><g style="display:inline" id="g8472" transform="matrix(0.9346781,0,0,0.9346781,-14.571811,69.044514)"><rect style="fill:#c2c1c1;fill-opacity:1;stroke:none" id="rect4172" width="5.348" height="1.067" x="15.59" y="1049.899"/><path style="fill:url(#linearGradient4958);fill-opacity:1;stroke:#c2c1c1;stroke-width:1.06988704px;stroke-linecap:butt;stroke-linejoin:miter;stroke-opacity:1" id="path4950" d="m 25.874196,1042.866 -5.532085,5.3903 c 0,0 -0.425545,1.3948 0.33098,1.9858 0.756524,0.5911 5.933987,0.2601 5.933987,0.2601 l 3.90083,-3.8299 z"/><path style="fill:url(#linearGradient4982);fill-opacity:1;stroke:#c2c1c1;stroke-width:1.06988704px;stroke-linecap:butt;stroke-linejoin:miter;stroke-opacity:1" id="path4972" d="m 30.106004,1047.3342 -4.633711,-4.3499 3.889236,-3.8893 4.468222,4.3027 z"/><path style="fill:url(#linearGradient4992);fill-opacity:1;stroke:#c2c1c1;stroke-width:1.06988704px;stroke-linecap:butt;stroke-linejoin:miter;stroke-opacity:1" id="path4974" d="m 30.36606,1044.5919 c -0.532814,-0.6954 -1.460212,-1.6094 -2.245932,-2.1042 -0.785721,-0.4947 -1.820388,-0.6616 -1.820388,-0.6616 0,0 0.09457,-0.993 1.205712,-1.9859 l 8.700031,-8.854 0,12.542 -2.742401,2.3641 c -0.898374,0.5438 -2.316857,0.662 -2.316857,0.662 0.127896,-0.6188 -0.247352,-1.267 -0.780165,-1.9624 z"/></g></g></svg>