<svg xmlns="http://www.w3.org/2000/svg" xmlns:svg="http://www.w3.org/2000/svg" xmlns:xlink="http://www.w3.org/1999/xlink" id="svg2" width="16" height="16" version="1.1"><defs id="defs4"><linearGradient id="linearGradient4191"><stop style="stop-color:#b9cad4;stop-opacity:1" id="stop4193" offset="0"/><stop style="stop-color:#fff;stop-opacity:0" id="stop4195" offset="1"/></linearGradient><linearGradient id="linearGradient4181"><stop style="stop-color:#998f6a;stop-opacity:1" id="stop4183" offset="0"/><stop style="stop-color:#7d827c;stop-opacity:1" id="stop4185" offset="1"/></linearGradient><linearGradient id="linearGradient4173"><stop style="stop-color:#267fe3;stop-opacity:1" id="stop4175" offset="0"/><stop style="stop-color:#80b4ef;stop-opacity:1" id="stop4177" offset="1"/></linearGradient><linearGradient id="linearGradient4179" x1="16.798" x2="17.847" y1="1047.219" y2="1045.608" gradientUnits="userSpaceOnUse" xlink:href="#linearGradient4173"/><linearGradient id="linearGradient4187" x1="18.834" x2="25.201" y1="1038.91" y2="1045.91" gradientUnits="userSpaceOnUse" xlink:href="#linearGradient4181"/><linearGradient id="linearGradient4197" x1="25.594" x2="26.562" y1="1046.628" y2="1048.503" gradientUnits="userSpaceOnUse" xlink:href="#linearGradient4191"/></defs><metadata id="metadata7"/><g id="layer1" transform="translate(0,-1036.3622)" style="display:inline"><g id="g4274" transform="translate(-14.156249,0.03125)"><path style="fill:#80b4ef;fill-opacity:1;fill-rule:evenodd;stroke:url(#linearGradient4187);stroke-width:1px;stroke-linecap:butt;stroke-linejoin:miter;stroke-opacity:1" id="path4163" d="m 22.718749,1037.8623 6.169845,6.5927 -6.84375,3.965 -6.232345,-6.6827 z"/><path style="fill:url(#linearGradient4179);fill-opacity:1;fill-rule:evenodd;stroke:#8f8b70;stroke-width:1px;stroke-linecap:butt;stroke-linejoin:miter;stroke-opacity:1" id="path4165" d="m 15.829234,1041.7098 c 0,0 -0.511908,0.2976 -0.734834,0.5205 -0.440434,0.4405 -0.281901,2.757 -0.281901,2.757 l 5.875,5.875 0.972075,0.2604 0,-3.2292 z"/><path style="fill:none;fill-rule:evenodd;stroke:#727b84;stroke-width:1;stroke-linecap:butt;stroke-linejoin:miter;stroke-miterlimit:4;stroke-dasharray:none;stroke-opacity:1" id="path4169" d="m 21.874999,1051.0498 c 0.25,-0.094 7.729397,-4.4626 7.729397,-4.4626 m -0.220971,-2.3156 -0.607442,0.334 -5.325044,3.0112 -1.66969,0.8033"/><path style="fill:#fff;fill-opacity:1;fill-rule:evenodd;stroke:#8f8b70;stroke-width:1.11224616px;stroke-linecap:butt;stroke-linejoin:miter;stroke-opacity:1" id="path4171" d="m 23.984508,1042.9939 0,-1.147 -1.077488,-1.0427 -1.216519,0 -0.973215,1.1817 -1.112246,0.034 -0.263635,0.9839 1.375881,1.0669 1.112246,0 1.216519,-1.1472 z"/><path style="fill:url(#linearGradient4197);fill-rule:evenodd;stroke:none;stroke-width:1px;stroke-linecap:butt;stroke-linejoin:miter;stroke-opacity:1;fill-opacity:1" id="path4189" d="m 22.156249,1048.1123 7.0625,-3.7188 0,2.375 -7.28125,4.0938 z"/></g></g></svg>